<?xml version="1.0" standalone="no"?>
<!DOCTYPE svg PUBLIC "-//W3C//DTD SVG 20010904//EN"
 "http://www.w3.org/TR/2001/REC-SVG-20010904/DTD/svg10.dtd">
<svg version="1.0" xmlns="http://www.w3.org/2000/svg"
 width="1280.000000pt" height="458.000000pt" viewBox="0 0 1280.000000 458.000000"
 preserveAspectRatio="xMidYMid meet">
<g transform="translate(0.000000,458.000000) scale(0.100000,-0.100000)"
fill="#000000" stroke="none">
<path d="M5285 4535 c-27 -8 -90 -17 -140 -20 -87 -6 -176 -21 -390 -65 -54
-11 -160 -25 -235 -30 -279 -19 -420 -32 -590 -51 -101 -11 -281 -22 -425 -25
-170 -4 -337 -15 -520 -34 -148 -16 -301 -31 -339 -35 -73 -6 -260 -70 -306
-104 -14 -10 -45 -28 -68 -40 -23 -12 -95 -61 -159 -109 -65 -49 -149 -105
-188 -126 -38 -21 -110 -62 -160 -90 -49 -29 -144 -84 -210 -121 -66 -38 -178
-107 -250 -153 -71 -47 -206 -132 -300 -189 -178 -110 -241 -163 -362 -305
-37 -43 -70 -78 -76 -78 -5 0 -26 -13 -47 -30 -27 -21 -49 -30 -76 -30 -81 -1
-186 -37 -233 -81 -24 -23 -37 -50 -51 -113 -5 -23 -16 -55 -25 -72 -8 -16
-15 -45 -15 -64 0 -29 -9 -44 -45 -80 -39 -38 -45 -50 -45 -85 1 -22 7 -51 15
-65 8 -14 15 -36 15 -50 1 -34 29 -68 87 -104 82 -51 177 -126 190 -151 26
-47 111 -39 156 15 12 14 24 19 35 15 60 -24 561 -102 665 -104 46 -1 157 -18
270 -41 106 -22 208 -40 227 -40 19 0 64 -9 100 -20 69 -21 235 -30 298 -16
41 9 164 -16 209 -43 17 -11 43 -41 57 -68 15 -26 42 -59 62 -72 42 -29 52
-47 71 -124 7 -33 36 -105 64 -160 28 -56 64 -134 80 -175 15 -41 36 -83 46
-94 10 -11 25 -45 34 -76 10 -32 29 -86 44 -121 15 -36 33 -97 40 -135 15 -88
36 -138 75 -182 16 -19 30 -42 30 -50 0 -8 14 -49 31 -90 25 -61 38 -79 64
-91 29 -14 37 -14 86 1 30 8 68 26 84 40 l30 24 -20 64 c-16 52 -19 87 -17
203 2 123 0 147 -19 200 -12 33 -28 67 -35 75 -7 8 -22 41 -34 72 -11 31 -30
68 -41 82 -12 15 -25 42 -30 61 -6 19 -27 55 -49 79 -40 48 -59 101 -41 119 7
7 31 1 81 -21 38 -18 84 -32 100 -32 16 0 53 -9 82 -20 29 -11 62 -20 73 -20
36 0 242 -50 286 -69 24 -11 100 -31 169 -45 69 -14 179 -37 245 -51 256 -56
465 -93 575 -104 63 -6 132 -13 154 -16 23 -2 53 3 73 13 34 16 36 16 89 -13
30 -16 61 -39 68 -50 7 -11 60 -78 116 -150 57 -71 151 -191 209 -265 58 -74
120 -148 136 -165 61 -60 243 -205 259 -205 9 0 16 -6 16 -14 0 -21 43 -52 98
-71 26 -9 67 -26 90 -37 37 -17 55 -19 115 -13 107 10 113 15 121 128 4 58 2
105 -5 124 -8 24 -7 39 4 66 9 21 13 52 10 79 -7 57 15 83 62 74 54 -10 65 0
65 58 0 28 8 98 17 156 20 130 19 142 -8 221 -31 92 -36 99 -84 120 -24 11
-47 24 -50 29 -9 14 25 27 90 35 108 12 286 45 520 96 127 28 304 66 395 86
157 34 373 93 670 181 74 22 155 43 180 47 25 3 65 13 90 20 25 8 88 21 140
30 52 8 122 22 155 29 33 8 105 24 160 36 55 12 152 35 215 50 223 56 306 71
386 71 95 0 127 -11 235 -81 41 -28 82 -50 91 -50 16 0 146 63 163 80 6 5 16
16 24 25 9 12 21 15 39 10 14 -3 59 -3 99 1 67 6 74 8 79 31 12 45 -11 54
-184 73 -89 10 -176 23 -194 28 -18 6 -61 16 -95 22 -35 7 -63 18 -63 24 0 12
80 56 101 56 18 0 173 71 191 87 18 16 146 53 184 53 39 0 256 -80 347 -128
96 -51 95 -50 202 -217 39 -60 106 -157 148 -215 43 -58 111 -152 151 -210 41
-58 129 -168 197 -245 67 -77 134 -153 148 -170 47 -54 324 -268 427 -330 150
-91 239 -110 359 -80 83 20 120 42 139 79 28 55 65 221 72 317 6 97 2 127 -49
429 -14 80 -33 192 -42 250 -64 392 -60 378 -110 442 -69 89 -55 108 81 108
145 0 296 38 457 114 126 59 146 82 133 150 -7 35 -6 35 74 86 128 83 174 147
240 335 55 154 62 253 26 324 -28 53 -108 116 -191 149 -94 37 -334 104 -455
126 -233 43 -244 44 -299 33 -40 -7 -58 -7 -73 2 -28 17 -189 24 -303 12 -55
-5 -201 -15 -325 -21 -279 -14 -290 -15 -290 -40 0 -21 -12 -26 -92 -35 -54
-7 -56 -6 -60 16 -3 23 -5 23 -98 19 -217 -11 -599 21 -800 66 -165 37 -167
38 -228 159 -41 80 -201 237 -296 290 -88 49 -260 113 -354 131 -40 8 -108 23
-150 33 -138 35 -278 61 -414 76 -186 20 -295 34 -353 45 -180 35 -297 50
-316 39 -21 -11 -119 -3 -129 10 -3 4 -36 12 -75 18 -38 6 -95 18 -125 27 -30
9 -94 18 -141 20 -47 2 -90 5 -95 8 -21 13 -159 30 -193 24 -25 -4 -44 -1 -58
9 -17 12 -44 13 -154 6 l-134 -9 -56 28 c-84 43 -251 83 -489 117 -152 22
-648 27 -715 8z"/>
</g>
</svg>
